<svg xmlns="http://www.w3.org/2000/svg" width="87.96" height="110.47" viewBox="0 0 87.96 110.47">
  <title>pajama</title>
  <g id="Layer_2" data-name="Layer 2">
    <g id="Layer_1-2" data-name="Layer 1">
      <path d="M87.87,102c-2.2-9.7-10.92-35.23-17.68-59.87h9.66a3.06,3.06,0,0,0,3.07-3c0-4.37,0-10.66.07-17.66A20,20,0,0,0,67.36,1.8C63.81,1,60.16.43,56.53,0a3,3,0,0,0-3.31,2.31c-1.54,6.22-6.5,11.5-9.24,14-2.74-2.52-7.7-7.83-9.24-14A3.08,3.08,0,0,0,31.43,0C27.8.43,24.14,1,20.6,1.8A20.07,20.07,0,0,0,5,21.42c0,7,0,13.29.07,17.66a3,3,0,0,0,3.07,3h9.68C11,66.76,2.29,92.3.09,102a3.09,3.09,0,0,0,2.28,3.76,186,186,0,0,0,83.23,0A3.07,3.07,0,0,0,87.87,102Zm-42-79.16c.39-.3,9-7,12.55-16.42,2.59.35,5.18.8,7.7,1.37A13.84,13.84,0,0,1,76.84,21.4c0,5.5,0,10.55,0,14.59H69.45V30.47a3.07,3.07,0,1,0-6.13,0v8c2.07,13,11.55,39.62,17.81,62a180.4,180.4,0,0,1-74.29,0c6.26-22.34,15.75-48.89,17.81-62v-8a3.07,3.07,0,1,0-6.13,0V36H11.16c0-4,0-9.09,0-14.59A13.84,13.84,0,0,1,21.88,7.78c2.52-.54,5.11-1,7.7-1.37,3.5,9.46,12.14,16.12,12.55,16.42A3,3,0,0,0,45.83,22.83Z"/>
    </g>
  </g>
</svg>
